<?xml version="1.0" encoding="UTF-8" standalone="no"?>
<!-- Created with Inkscape (http://www.inkscape.org/) -->

<svg
   width="83.018448"
   height="95.62088"
   viewBox="0 0 21.965297 25.299691"
   version="1.1"
   id="svg1"
   xml:space="preserve"
   xmlns="http://www.w3.org/2000/svg"
   xmlns:svg="http://www.w3.org/2000/svg"><defs
     id="defs1" /><g
     id="layer1"
     transform="translate(34.101648,-213.25836)"><path
       id="path172"
       d="m -23.113281,213.26172 a 0.14410426,0.14410426 0 0 0 -0.08203,0.006 c -1.098124,0.39435 -2.161803,0.90487 -3.238282,1.32812 a 0.14410426,0.14410426 0 0 0 -0.0098,0.004 c -0.611707,0.28972 -1.328891,0.46627 -1.9375,0.85547 a 0.14410426,0.14410426 0 0 0 -0.06641,0.12109 c 0.0021,1.07514 0.0057,2.1517 0.0078,3.22656 l 0.0039,-0.0332 c -0.04972,0.21467 -3.28e-4,0.43392 0.01367,0.61914 0.007,0.0926 0.0054,0.17516 -0.0078,0.23633 -0.01323,0.0612 -0.03302,0.0981 -0.07422,0.13086 a 0.14410426,0.14410426 0 0 0 -0.05469,0.11328 v 2.31641 c -0.994711,0.42426 -1.989717,0.84919 -2.984375,1.27343 a 0.14410426,0.14410426 0 0 0 -0.0059,0.002 c -0.711136,0.33688 -1.498277,0.57799 -2.210938,0.97265 a 0.14410426,0.14410426 0 0 0 -0.07422,0.12696 v 5.80859 l 0.002,-0.0254 c -0.03894,0.22343 0.01376,0.44974 0.01172,0.62109 -0.001,0.0857 -0.01448,0.15211 -0.03906,0.19727 -0.02459,0.0452 -0.05672,0.079 -0.142578,0.10742 a 0.14410426,0.14410426 0 0 0 -0.09961,0.14063 c 0.01389,0.50873 0.02712,1.01642 0.04102,1.52539 a 0.14410426,0.14410426 0 0 0 0.04492,0.0996 c 0.477272,0.45327 1.13016,0.63171 1.625,0.93945 a 0.14410426,0.14410426 0 0 0 0.09766,0.0195 c 0.530375,-0.083 0.95055,-0.44054 1.369141,-0.62109 0.354461,0.0694 0.756192,0.32552 1.179687,0.5039 v 1.33789 a 0.14410426,0.14410426 0 0 0 0.08008,0.12891 c 0.600021,0.30052 1.198925,0.59994 1.798828,0.90039 a 0.14410426,0.14410426 0 0 0 0.128906,0 c 0.473359,-0.24075 0.941706,-0.49112 1.410156,-0.73633 0.392113,0.1866 0.783777,0.37402 1.175781,0.56055 v 1.22266 c -0.0077,0.14086 0.05065,0.26874 0.134766,0.35351 0.08411,0.0848 0.187738,0.13536 0.291016,0.17969 0.206554,0.0887 0.421817,0.15818 0.509765,0.23828 a 0.14410426,0.14410426 0 0 0 0.0332,0.0215 c 0.29858,0.14753 0.599457,0.31933 0.916016,0.46094 a 0.14410426,0.14410426 0 0 0 0.119141,0 c 3.53559,-1.66565 7.019681,-3.46206 10.539062,-5.1582 0.13587,-0.0228 0.250068,-0.0728 0.326172,-0.15625 0.08425,-0.0923 0.119048,-0.20689 0.132812,-0.31641 0.02753,-0.21904 -0.01191,-0.4466 0,-0.60937 a 0.14410426,0.14410426 0 0 0 -0.002,-0.0312 c -0.02404,-0.16046 0.01896,-0.39541 0.01367,-0.63086 -0.0026,-0.11773 -0.0183,-0.23983 -0.07813,-0.35352 -0.04534,-0.0862 -0.125161,-0.15542 -0.220703,-0.21289 l -0.05469,-12.25 a 0.14410426,0.14410426 0 0 0 -0.0039,-0.0273 c -0.02626,-0.13796 0.0018,-0.33185 0.01367,-0.53516 0.01186,-0.2033 0.0063,-0.43237 -0.146484,-0.61719 a 0.14410426,0.14410426 0 0 0 -0.05469,-0.041 c -2.749693,-1.16882 -5.502852,-2.32819 -8.255859,-3.48828 a 0.14410426,0.14410426 0 0 0 -0.0078,-0.002 c -0.704328,-0.25898 -1.399019,-0.67218 -2.167969,-0.85351 z m -0.05273,0.65039 c 0.393606,0.0806 0.79091,0.27633 1.197266,0.46094 -0.506099,0.23714 -1.088796,0.46367 -1.628906,0.70507 -0.866885,0.36385 -1.732654,0.72679 -2.59961,1.08985 -0.384823,-0.0875 -0.79405,-0.29722 -1.216796,-0.48438 1.416157,-0.5906 2.831853,-1.18092 4.248046,-1.77148 z m 1.802735,0.77148 c 0.0615,-0.009 0.124195,1.8e-4 0.197265,0.0195 0.05315,0.0141 0.119721,0.0494 0.177735,0.0742 -1.19391,0.54343 -2.427177,1.01647 -3.642578,1.54102 a 0.14410426,0.14410426 0 0 0 -0.0293,0.0156 c -0.09665,0.0706 -0.27728,0.11792 -0.462891,0.17579 -0.185611,0.0579 -0.398429,0.13797 -0.490234,0.35156 a 0.14410426,0.14410426 0 0 0 -0.0059,0.0195 c -0.0696,0.25782 -0.03602,0.50182 -0.05273,0.70703 a 0.14410426,0.14410426 0 0 0 0.002,0.0352 c 0.01233,0.0774 0.0092,0.0666 0.0078,0.0976 -0.03948,-0.0226 -0.07533,-0.0429 -0.13086,-0.0742 -0.05253,-0.0296 -0.121479,-0.0477 -0.185547,-0.0703 -0.03949,-0.11282 -0.05411,-0.2568 -0.04687,-0.42969 0.0065,-0.15432 0.01103,-0.32312 0.0039,-0.48828 1.48307,-0.6125 2.964192,-1.22653 4.4375,-1.86523 a 0.14410426,0.14410426 0 0 0 0.03516,-0.0215 c 0.06558,-0.0533 0.124042,-0.0792 0.185547,-0.0879 z m 1.017578,0.4043 c 0.519882,0.17794 1.053542,0.39647 1.541016,0.62891 -0.631996,0.3024 -1.340033,0.56404 -2.007813,0.86328 l -1.927734,0.80664 a 0.14410426,0.14410426 0 0 0 -0.0293,0.0176 c -0.161379,0.12057 -0.311869,0.13014 -0.490235,0.0918 -0.176562,-0.038 -0.370063,-0.13272 -0.560546,-0.22461 l -0.0059,-0.002 c -0.282851,-0.15393 -0.584901,-0.25839 -0.820312,-0.37891 1.445836,-0.57621 2.871995,-1.19776 4.300781,-1.80273 z m 2.455078,0.99414 c 1.389371,0.5894 2.778569,1.17816 4.167969,1.76758 a 0.14410426,0.14410426 0 0 0 0.02539,0.008 c 0.04664,0.0102 0.06718,0.0195 0.09766,0.0293 -0.120723,0.0661 -0.330394,0.14685 -0.480469,0.20898 -0.15733,0.0505 -0.293662,0.13031 -0.417969,0.18555 -0.125653,0.0558 -0.231815,0.0821 -0.341797,0.0644 -1.420257,-0.61092 -2.860489,-1.17474 -4.267578,-1.78906 0.418394,-0.18828 0.813892,-0.39829 1.216797,-0.47461 z m -9.994141,0.084 c 0.0016,1.4e-4 1.16e-4,-2.4e-4 0.002,0 0.0814,0.0105 0.302578,0.12439 0.5,0.21289 0.173158,0.11651 0.384173,0.16458 0.552734,0.22656 0.08844,0.0325 0.163191,0.0684 0.210937,0.10547 0.04775,0.0371 0.06777,0.0659 0.07617,0.11523 a 0.14410426,0.14410426 0 0 0 0.002,0.01 c 0.02983,0.12368 0.0072,0.35027 0,0.57031 -0.0036,0.11002 -0.0022,0.21941 0.02344,0.32617 0.0256,0.10676 0.08227,0.21743 0.1875,0.28516 a 0.14410426,0.14410426 0 0 0 0.002,0.002 c 0.257937,0.16076 0.44923,0.20217 0.671875,0.28711 0.06165,0.0709 0.127558,0.12367 0.214844,0.13672 -0.515032,0.22854 -1.025733,0.45855 -1.544922,0.66406 a 0.14410426,0.14410426 0 0 0 -0.002,0.002 c -0.289181,0.1194 -0.578477,0.23953 -0.867188,0.36133 v -3.05078 a 0.14410426,0.14410426 0 0 0 -0.0059,-0.0371 c -0.03637,-0.14039 -0.02546,-0.20417 -0.02344,-0.21679 z m 8.087891,0.70898 c 1.408471,0.53803 2.812331,1.15857 4.226562,1.72852 0.196139,0.0791 0.400132,0.14068 0.509766,0.21875 0.05482,0.039 0.08458,0.075 0.09961,0.12109 0.01503,0.0461 0.0176,0.11196 -0.01758,0.21875 a 0.14410426,0.14410426 0 0 0 -0.0039,0.0762 c 0.04136,0.18916 0.02555,0.33588 -0.01953,0.42383 -0.04508,0.0879 -0.109007,0.13305 -0.242188,0.14258 a 0.14410426,0.14410426 0 0 0 -0.08398,0.082 c -0.04763,-0.0685 -0.08106,-0.16705 -0.08398,-0.32227 -0.0034,-0.17972 0.01704,-0.38554 -0.002,-0.57422 a 0.14410426,0.14410426 0 0 0 -0.08984,-0.12109 c -1.521302,-0.60305 -3.033579,-1.23187 -4.546875,-1.85937 a 0.14410426,0.14410426 0 0 0 -0.03516,-0.01 c -0.02733,-0.004 -0.03508,-0.009 -0.05664,-0.0137 0.10638,-0.0504 0.24824,-0.10446 0.345703,-0.11133 z m -1.009766,0.39844 c 1.461938,0.55461 2.907219,1.2019 4.369141,1.79883 -0.01399,0.006 -0.01245,0.007 -0.02734,0.0117 -0.09848,0.0344 -0.217636,0.0701 -0.324218,0.10743 -0.106583,0.0374 -0.195211,0.0613 -0.277344,0.14062 l 0.04297,-0.0293 c -0.272249,0.11523 -0.545468,0.23035 -0.81836,0.34571 -1.181941,-0.45814 -2.352115,-0.97377 -3.535156,-1.45703 l -0.01758,-0.008 c -0.179715,-0.0991 -0.384921,-0.16153 -0.566406,-0.22851 -0.09788,-0.0361 -0.14384,-0.0816 -0.216797,-0.12305 0.4656,-0.19792 0.917792,-0.41669 1.371093,-0.55859 z m -4.333984,0.10547 c 0.0048,-0.002 0.03839,-0.009 0.101563,0.0117 0.06318,0.0203 0.149629,0.0648 0.248046,0.13282 a 0.14410426,0.14410426 0 0 0 0.0098,0.006 c 0.174863,0.10004 0.377433,0.15859 0.552734,0.22461 0.08573,0.0323 0.122706,0.0729 0.1875,0.10937 -0.397916,0.15372 -0.791678,0.31723 -1.179687,0.48828 0.0165,-0.0204 0.03776,-0.0384 0.04883,-0.0605 0.0814,-0.16287 0.0803,-0.37388 0.03906,-0.5918 a 0.14410426,0.14410426 0 0 0 0,-0.006 c -0.03024,-0.12663 -0.0337,-0.219 -0.02539,-0.26758 0.0083,-0.0486 0.01281,-0.0447 0.01758,-0.0469 z m 2.041016,0.74414 c 0.38438,0.16648 0.773157,0.34024 1.167968,0.5039 -1.187396,0.53897 -2.40672,1.02163 -3.61914,1.52344 -0.314807,0.0936 -0.573428,0.27344 -0.794922,0.26953 -0.374431,-0.1427 -0.754172,-0.28626 -1.089844,-0.46875 1.46493,-0.57052 2.892654,-1.229 4.335938,-1.82812 z m 9.982421,0.24804 c 0.0098,2.01629 0.01955,4.03259 0.0293,6.04883 -0.738407,0.40977 -1.564628,0.70536 -2.355468,1.08399 l 0.0078,-0.002 c -0.755259,0.31311 -1.490558,0.68906 -2.232422,0.96289 0.0022,-0.56235 0.0057,-1.12505 0.0078,-1.6875 v -0.004 c 0.03258,-1.51126 -0.03861,-3.02134 0.05859,-4.50977 0.100026,-0.0852 0.238972,-0.15718 0.410156,-0.2207 0.188199,-0.0698 0.396872,-0.13415 0.583984,-0.23438 l -0.05859,0.0176 c 0.112271,-0.007 0.20584,-0.0548 0.306641,-0.10547 0.100801,-0.0507 0.203922,-0.10946 0.294922,-0.15429 0.08731,-0.043 0.163146,-0.0653 0.193359,-0.0684 0.0066,0.0262 0.01029,0.12205 0.0039,0.22851 -0.0064,0.10647 -0.01669,0.22866 -0.01953,0.34375 -0.0028,0.1151 -0.0069,0.22003 0.04492,0.32617 0.02593,0.0531 0.0805,0.11086 0.154297,0.12891 0.0738,0.0181 0.141106,-6.4e-4 0.201172,-0.0312 0.281184,-0.0963 0.486628,-0.19688 0.847656,-0.3457 a 0.14410426,0.14410426 0 0 0 0.07617,-0.0723 c 0.09186,-0.19652 0.103781,-0.41492 0.107422,-0.6289 0.0032,-0.18671 0.0033,-0.36359 0.01953,-0.52149 z m -8.08789,0.59766 c 0.06131,0.007 0.127731,0.0511 0.191406,0.0723 -1.186785,0.53668 -2.410335,1.02039 -3.617187,1.54296 a 0.14410426,0.14410426 0 0 0 -0.0293,0.0176 c -0.09653,0.0709 -0.277319,0.11754 -0.462891,0.17578 -0.185571,0.0582 -0.39835,0.13808 -0.490234,0.35157 a 0.14410426,0.14410426 0 0 0 -0.0059,0.0156 c -0.06918,0.2321 -0.03364,0.45027 -0.04883,0.625 a 0.14410426,0.14410426 0 0 0 0,0.0293 c 0.01362,0.10549 0.009,0.13333 0.0078,0.17383 -0.02838,-0.0128 -0.03959,-0.0183 -0.08008,-0.0371 -0.05566,-0.0259 -0.134153,-0.0482 -0.208985,-0.0703 -0.04316,-0.095 -0.06684,-0.24543 -0.06445,-0.43359 0.0021,-0.16833 0.0051,-0.35128 -0.0078,-0.52734 1.448714,-0.58361 2.88095,-1.203 4.320312,-1.79883 a 0.14410426,0.14410426 0 0 0 0.02734,-0.0156 c 0.158727,-0.11122 0.309078,-0.13881 0.46875,-0.12109 z m 0.923828,0.35352 c 0.506278,0.20789 1.013169,0.41525 1.519531,0.62304 -0.689401,0.31231 -1.395488,0.59629 -2.097656,0.9043 l -1.888672,0.80078 a 0.14410426,0.14410426 0 0 0 -0.0293,0.0176 c -0.160914,0.12161 -0.311913,0.13394 -0.488281,0.0977 -0.174562,-0.0359 -0.364401,-0.12975 -0.552734,-0.22265 l -0.0059,-0.002 c -0.283993,-0.15529 -0.590557,-0.26047 -0.826172,-0.38282 1.464409,-0.59609 2.917017,-1.21566 4.369141,-1.83593 z m 2.035156,1.11523 v 6.30859 l -1.884765,0.82618 c -0.915723,0.40104 -1.827988,0.80632 -2.746094,1.19531 0.0096,-2.13179 0.0196,-4.26486 0.0293,-6.39649 1.535757,-0.64396 3.063789,-1.30149 4.601562,-1.93359 z m -9.669922,0.0293 c 0.01644,1.8e-4 0.01952,-0.006 0.04492,0 0.06409,0.0143 0.148547,0.0491 0.240235,0.0937 0.183375,0.0894 0.384563,0.21604 0.589843,0.26367 0.205386,0.0543 0.367502,0.1276 0.449219,0.2168 0.08243,0.09 0.116398,0.19389 0.05273,0.4121 a 0.14410426,0.14410426 0 0 0 -0.0059,0.0391 c -0.0024,0.17386 -0.03157,0.36497 0.0059,0.54687 0.01871,0.091 0.05995,0.18763 0.144531,0.25391 0.08458,0.0663 0.198265,0.0926 0.326172,0.0879 l -0.05469,-0.01 c 0.293726,0.10728 0.476897,0.24517 0.75586,0.30078 a 0.14410426,0.14410426 0 0 0 0.142578,-0.0547 c 0.12648,-0.16943 0.113755,-0.37895 0.103515,-0.58399 -0.0067,-0.13327 -0.0047,-0.24125 -0.0059,-0.35547 0.541005,0.18779 1.076634,0.4542 1.634766,0.68164 0.0063,1.08006 0.01331,2.16025 0.01953,3.24024 0.0043,0.7368 0.0094,1.47239 0.01367,2.20898 l 0.002,-0.0215 c -0.03242,0.20559 1.28e-4,0.43685 0.01172,0.64258 0.0088,0.15626 -0.01291,0.23548 -0.0332,0.30273 -1.475003,-0.58902 -2.931601,-1.26715 -4.40625,-1.89453 -0.0098,-2.12395 -0.02145,-4.24723 -0.03125,-6.37109 z m -0.642578,2.39257 v 1.04688 c -0.564994,0.20952 -1.111204,0.45689 -1.658203,0.67969 a 0.14410426,0.14410426 0 0 0 -0.002,0 c -0.454655,0.19123 -0.908776,0.38301 -1.363281,0.57422 -0.389526,-0.14354 -0.777651,-0.33681 -1.171875,-0.51758 1.406207,-0.57436 2.806125,-1.17186 4.195312,-1.78321 z m 0.06836,1.56446 c 0.05876,-0.11824 -0.174608,1.31715 -0.02344,0.26172 -0.624536,0.2658 -1.250371,0.53096 -1.875,0.79687 l 0.04102,-0.01 c -0.152891,0.0162 -0.280619,0.0742 -0.369141,0.16406 -0.08852,0.0899 -0.135191,0.20198 -0.162109,0.31445 -0.05384,0.22494 -0.03658,0.46708 -0.04687,0.64649 a 0.14410426,0.14410426 0 0 0 0.002,0.0352 c 0.01614,0.0861 0.01455,0.0768 0.01367,0.0977 -0.04705,-0.0249 -0.104914,-0.0592 -0.171875,-0.10156 -0.05256,-0.0332 -0.111985,-0.0583 -0.169922,-0.0859 -0.04235,-0.109 -0.05647,-0.25965 -0.04883,-0.4375 0.0067,-0.15482 0.01107,-0.32272 0.0039,-0.48828 0.828521,-0.34758 1.655914,-0.69547 2.484375,-1.04297 a 0.14410426,0.14410426 0 0 0 0.02344,-0.0137 c 0.106592,-0.0709 0.192099,-0.1118 0.246093,-0.12696 0.054,-0.0152 0.06088,-0.004 0.05273,-0.01 z m -4.757813,0.69726 c 0.343106,0.14276 0.682443,0.29452 1.029297,0.44141 a 0.14410426,0.14410426 0 0 0 0.03906,0.01 c 0.212502,0.0273 0.291482,0.0954 0.339843,0.19726 0.04836,0.10187 0.0549,0.26665 0.02148,0.46875 -0.06512,0.2717 -0.03127,0.46969 0.06836,0.60352 0.101287,0.13605 0.225275,0.19889 0.328125,0.30273 a 0.14410426,0.14410426 0 0 0 0.138672,0.0371 c 0.116001,-0.0307 0.169598,-0.007 0.259766,0.043 0.09017,0.0501 0.20182,0.13873 0.367187,0.1875 a 0.14410426,0.14410426 0 0 0 0.15625,-0.0527 c 0.126605,-0.16959 0.113754,-0.38043 0.103516,-0.58593 -0.0065,-0.13138 -0.0044,-0.23641 -0.0059,-0.34961 0.582572,0.22582 1.16179,0.50099 1.753907,0.75195 0.005,1.01813 0.01068,2.03664 0.01563,3.05469 l 0.0098,2.02344 0.002,-0.0215 c -0.03117,0.20496 3.42e-4,0.43441 0.01172,0.63867 0.0084,0.15151 -0.01505,0.23025 -0.03516,0.30274 -1.531807,-0.64215 -3.043365,-1.3779 -4.574219,-2.06055 -0.0097,-1.99689 -0.01953,-3.99528 -0.0293,-5.99219 z m 20.158203,0.0547 v 5.77149 l -2.191406,1.03515 c -0.785503,0.34968 -1.540884,0.75401 -2.320312,1.06445 v -5.89843 c 0.47372,-0.21072 0.948294,-0.42025 1.421875,-0.63086 l 0.002,-0.002 c 1.041117,-0.43756 2.055869,-0.9505 3.08789,-1.33984 z m -15.408203,0.0625 c 0.003,0.0149 0.0068,0.0274 0.0078,0.0527 0.0032,0.077 -0.0079,0.18803 -0.01758,0.29882 -0.0097,0.1108 -0.01998,0.21856 -0.0039,0.32227 -0.01707,0.14185 -0.0071,0.29157 -0.0039,0.42578 0.0023,0.0973 -0.01309,0.13486 -0.02539,0.1875 -0.481922,-0.15953 -0.972008,-0.4025 -1.474609,-0.62891 0.460304,-0.19405 0.920435,-0.38797 1.380859,-0.58203 a 0.14410426,0.14410426 0 0 0 0.02539,-0.0156 c 0.05235,-0.0366 0.08726,-0.0514 0.111328,-0.0606 z m 10.251953,2.19922 v 5.94727 c -1.150911,0.54181 -2.301555,1.08423 -3.455078,1.61914 -0.405072,0.17121 -0.791825,0.38123 -1.175781,0.52929 v -6.07617 c 0.478805,-0.20887 0.958583,-0.41539 1.439453,-0.62109 a 0.14410426,0.14410426 0 0 0 0.02344,-0.0117 c 0.10278,-0.0679 0.189406,-0.11524 0.251953,-0.13672 0.06255,-0.0215 0.09206,-0.0136 0.0918,-0.0137 -2.61e-4,-1.2e-4 0.0044,-0.008 0.01367,0.041 0.0092,0.0486 0.0084,0.14017 -0.01367,0.26758 l 0.002,-0.008 c -0.04607,0.1938 -0.02161,0.40155 0.05273,0.56055 0.03717,0.0795 0.09267,0.17114 0.214844,0.1875 0.06109,0.008 0.124046,-0.0152 0.167969,-0.0488 0.02159,-0.0165 0.03416,-0.0419 0.05078,-0.0625 0.150815,-0.005 0.281579,-0.0591 0.382812,-0.11524 0.123266,-0.0683 0.224049,-0.12384 0.375,-0.12304 a 0.14410426,0.14410426 0 0 0 0.144532,-0.14063 c 0.0104,-0.39378 0.0209,-0.78795 0.03125,-1.18164 0.473573,-0.20793 0.933642,-0.42846 1.402343,-0.61328 z m -9.701172,0.0547 c 1.48444,0.64116 2.967568,1.28597 4.455079,1.92187 v 3.07422 2.17774 l 0.0078,-0.043 c -0.07047,0.22244 -0.0029,0.46248 0.01172,0.65625 0.0073,0.0969 0.0017,0.17856 -0.01172,0.21484 -0.0085,0.023 -0.02441,0.0224 -0.03711,0.0273 -1.232751,-0.58334 -2.476042,-1.14309 -3.71875,-1.70117 l -0.0078,-0.004 c -0.193055,-0.0991 -0.404922,-0.15857 -0.539062,-0.24024 -0.06806,-0.0414 -0.112253,-0.0855 -0.138672,-0.13476 -0.02642,-0.0493 -0.04042,-0.1099 -0.02344,-0.21289 a 0.14410426,0.14410426 0 0 0 0.002,-0.0274 c -0.0569,-1.89375 0.0038,-3.80187 0,-5.70898 z m 7.808594,0.77734 c -0.002,0.0215 -0.0098,0.0879 -0.01172,0.0996 -0.0026,0.17651 -0.01558,0.36013 -0.05859,0.47461 -0.02151,0.0572 -0.04858,0.0934 -0.07617,0.11523 -0.02759,0.0218 -0.0588,0.035 -0.121094,0.0332 a 0.14410426,0.14410426 0 0 0 -0.09766,0.0352 c -0.03228,0.0278 -0.04652,0.0345 -0.06641,0.0469 -0.0011,-0.01 -0.0033,-0.0121 -0.0039,-0.0234 -0.0041,-0.0755 0.0033,-0.18429 0.0098,-0.28906 0.0064,-0.10478 0.01555,-0.20234 -0.0039,-0.29883 l 0.0039,0.0254 c 8.11e-4,0.025 0.01225,-0.0284 0.07227,-0.0781 0.06002,-0.0497 0.148781,-0.0992 0.226562,-0.125 0.07127,-0.0237 0.11968,-0.0156 0.126953,-0.0156 z m 7.408203,3.68945 c 4.29e-4,0.003 0.0016,0.002 0.002,0.006 0.0075,0.0723 0.006,0.16831 0.002,0.27149 -0.0068,0.17121 -0.01237,0.35331 -0.0039,0.52344 -0.247456,0.12104 -0.49481,0.24209 -0.742187,0.36328 0.008,-0.0433 0.03259,-0.0839 0.03516,-0.12696 0.01427,-0.23904 -0.02247,-0.48308 0.0059,-0.63476 0.01143,-0.0479 0.03664,-0.0818 0.08789,-0.1211 0.05125,-0.0393 0.1265,-0.078 0.214844,-0.11328 0.123214,-0.0492 0.263806,-0.10073 0.398437,-0.16797 z m -20.695312,0.11719 c 6.28e-4,-6.1e-4 -0.01332,-0.007 0.03125,0.006 0.04457,0.0129 0.128041,0.0584 0.234375,0.14649 a 0.14410426,0.14410426 0 0 0 0.02734,0.0176 c 0.194798,0.0969 0.400109,0.17145 0.515625,0.26172 0.05776,0.0451 0.09067,0.0892 0.107421,0.14063 0.01675,0.0514 0.02096,0.11799 -0.01367,0.22461 a 0.14410426,0.14410426 0 0 0 -0.0078,0.0527 c 0.0065,0.11543 0.01225,0.20651 0.0098,0.26563 -2.86e-4,0.007 6.51e-4,2e-4 0,0.006 -0.03948,-0.0173 -0.09622,-0.0458 -0.179688,-0.0996 -0.184768,-0.13894 -0.419089,-0.19468 -0.572265,-0.27539 -0.07659,-0.0404 -0.126743,-0.082 -0.150391,-0.1211 -0.02365,-0.0391 -0.03556,-0.0805 -0.0098,-0.17383 a 0.14410426,0.14410426 0 0 0 0.0039,-0.0645 c -0.02134,-0.11752 -0.02892,-0.21624 -0.02344,-0.28516 0.0055,-0.0689 0.02633,-0.10057 0.02734,-0.10156 z m 18.638672,0.88086 c 0.05454,0.003 0.123154,0.0263 0.197265,0.0644 0.08853,0.0456 0.17785,0.11062 0.267578,0.17383 -0.767511,0.38339 -1.535331,0.76711 -2.302734,1.15039 a 0.14410426,0.14410426 0 0 0 -0.02734,0.0176 c -0.03471,0.0289 -0.05082,0.0358 -0.07227,0.0488 -7.58e-4,-0.01 -0.0017,-0.012 -0.002,-0.0234 -0.0017,-0.0801 0.0096,-0.19569 0.01758,-0.30859 0.005,-0.0706 -0.0031,-0.13733 -0.0059,-0.20508 l 1.751953,-0.84961 a 0.14410426,0.14410426 0 0 0 0.0293,-0.0176 c 0.05143,-0.0428 0.09194,-0.0535 0.146485,-0.0508 z m -2.447266,1.1543 c 0.0016,0.0114 0.005,0.01 0.0059,0.0234 0.0047,0.073 -5.35e-4,0.16893 -0.0078,0.26953 -0.0073,0.10059 -0.01737,0.20595 -0.01172,0.30859 0.0043,0.0778 0.03683,0.15298 0.07422,0.22656 -0.288762,0.14188 -0.578407,0.28201 -0.867188,0.42383 0.01827,-0.097 0.02466,-0.19811 0.02148,-0.29297 -0.0068,-0.20185 -0.02113,-0.39014 0.002,-0.52148 0.08539,-0.0903 0.217813,-0.17131 0.384766,-0.2461 0.128157,-0.0574 0.265161,-0.12354 0.398437,-0.1914 z m -11.896484,0.0508 c 0.0025,-4e-4 -8.91e-4,-4.7e-4 0.0078,0 0.06953,0.004 0.284691,0.10422 0.464844,0.20898 a 0.14410426,0.14410426 0 0 0 0.0332,0.0137 c 0.204219,0.0584 0.356626,0.13771 0.435547,0.23242 0.07892,0.0947 0.11057,0.20688 0.05078,0.41992 a 0.14410426,0.14410426 0 0 0 -0.0059,0.0391 v 0.22266 a 0.14410426,0.14410426 0 0 0 0.0059,0.0351 c 0.0114,0.0445 0.01057,0.0652 0.01367,0.0918 -0.05839,-0.0261 -0.136066,-0.0722 -0.21875,-0.12109 -0.08701,-0.0515 -0.174326,-0.10305 -0.267578,-0.13282 -0.20785,-0.0647 -0.3593,-0.15221 -0.439453,-0.25585 -0.08015,-0.10365 -0.111984,-0.22863 -0.05469,-0.44532 a 0.14410426,0.14410426 0 0 0 0,-0.0742 c -0.03774,-0.1436 -0.02988,-0.21912 -0.02539,-0.23437 z m 1.626953,0.62109 c -0.02147,0.007 -0.01399,0.0571 0,0.0469 -0.0021,-0.0153 0.0033,-0.0317 0,-0.0469 z m 0.002,0.12305 c 0.0503,0.0144 0.117426,0.0394 0.197266,0.082 0.08714,0.0466 0.175051,0.10421 0.248046,0.1543 -0.120103,0.0686 -0.238949,0.13399 -0.373046,0.21484 a 0.14410426,0.14410426 0 0 0 -0.02148,0.0156 c -0.02966,0.0265 -0.04229,0.0308 -0.0625,0.0449 -1.03e-4,-0.003 6.4e-5,-0.003 0,-0.006 -0.0018,-0.0786 0.0077,-0.19272 0.01563,-0.30469 0.0049,-0.0695 -0.0017,-0.13465 -0.0039,-0.20117 z m 8.101562,0.26367 c 0.06072,0.001 0.133499,0.0251 0.216797,0.0664 0.0912,0.0452 0.211363,0.10416 0.31836,0.16601 -0.425768,0.24675 -0.905474,0.43714 -1.369141,0.68555 -0.438371,0.21031 -0.875865,0.41847 -1.314453,0.62891 a 0.14410426,0.14410426 0 0 0 -0.01758,0.01 c -0.03691,0.0243 -0.0529,0.0296 -0.07422,0.0391 -2.96e-4,-0.013 -9.9e-4,-0.0186 0,-0.0352 0.0047,-0.0789 0.02343,-0.18938 0.04102,-0.29688 0.01121,-0.0685 0.01206,-0.13374 0.01563,-0.19922 0.63882,-0.34457 1.31014,-0.64232 1.970703,-0.97265 a 0.14410426,0.14410426 0 0 0 0.02734,-0.0176 c 0.07146,-0.0599 0.124822,-0.0754 0.185546,-0.0742 z m -5.144531,1.13672 c 0.01785,0.004 0.01329,0.001 0.05859,0.0234 0.07947,0.0386 0.177835,0.0996 0.275391,0.15429 0.09755,0.0547 0.186943,0.10733 0.296875,0.12305 l -0.01172,-0.002 c 0.208053,0.0472 0.317206,0.12725 0.376953,0.23242 0.05975,0.10517 0.07572,0.25724 0.03125,0.46484 a 0.14410426,0.14410426 0 0 0 -0.0039,0.0293 v 0.37695 c -0.264599,-0.12806 -0.527706,-0.26499 -0.800782,-0.39843 a 0.14410426,0.14410426 0 0 0 -0.0332,-0.0117 c -0.09748,-0.0205 -0.130922,-0.0518 -0.15625,-0.0937 -0.02533,-0.042 -0.03819,-0.11013 -0.03906,-0.20117 -0.0017,-0.18209 0.05526,-0.42584 0.0098,-0.66016 a 0.14410426,0.14410426 0 0 0 0,-0.002 c -0.0043,-0.0213 -0.0027,-0.0207 -0.0039,-0.0352 z m 2.447266,0.1543 c 0.0032,0.0114 0.0072,0.006 0.0098,0.0254 0.0081,0.0632 0.0045,0.15985 -0.0039,0.26172 -0.0084,0.10187 -0.02123,0.21011 -0.01953,0.3164 0.0014,0.0864 0.02944,0.17182 0.07227,0.25391 -0.278368,0.13772 -0.557748,0.27632 -0.835938,0.40625 -0.03333,-0.2456 -0.0071,-0.55078 -0.0078,-0.86719 0.07724,-0.0798 0.202276,-0.15084 0.365234,-0.21484 0.134656,-0.0529 0.280261,-0.11435 0.419922,-0.18164 z" /></g></svg>
